<svg width="305" height="36" viewBox="0 0 305 36" fill="none" xmlns="http://www.w3.org/2000/svg">
<path d="M29.2093 1.4L17.4973 21.656V35H11.9773V21.656L0.26533 1.4H6.55333L14.7613 16.28L22.9213 1.4H29.2093ZM58.9922 30.584C55.6322 33.944 51.5202 35.624 46.6562 35.624C41.7922 35.624 37.6642 33.944 34.2722 30.584C30.9122 27.192 29.2322 23.064 29.2322 18.2C29.2322 13.336 30.9122 9.224 34.2722 5.864C37.6642 2.472 41.7922 0.775997 46.6562 0.775997C51.5202 0.775997 55.6322 2.472 58.9922 5.864C62.3842 9.224 64.0802 13.336 64.0802 18.2C64.0802 23.064 62.3842 27.192 58.9922 30.584ZM38.1602 26.84C40.4642 29.112 43.2962 30.248 46.6562 30.248C50.0162 30.248 52.8322 29.112 55.1042 26.84C57.4082 24.536 58.5602 21.656 58.5602 18.2C58.5602 14.744 57.4082 11.88 55.1042 9.608C52.8322 7.304 50.0162 6.152 46.6562 6.152C43.2962 6.152 40.4642 7.304 38.1602 9.608C35.8882 11.88 34.7522 14.744 34.7522 18.2C34.7522 21.656 35.8882 24.536 38.1602 26.84ZM90.8661 32.456C88.4981 34.568 85.4421 35.624 81.6981 35.624C77.9541 35.624 74.8981 34.568 72.5301 32.456C70.1621 30.312 68.9781 27.448 68.9781 23.864V1.4H74.4981V23.528C74.4981 25.576 75.0901 27.208 76.2741 28.424C77.4901 29.64 79.2981 30.248 81.6981 30.248C84.0981 30.248 85.8901 29.64 87.0741 28.424C88.2901 27.208 88.8981 25.576 88.8981 23.528V1.4H94.4181V23.864C94.4181 27.448 93.2341 30.312 90.8661 32.456ZM121.407 1.4H126.927V35H122.607L106.767 12.2V35H101.247V1.4H105.567L121.407 24.2V1.4ZM166.806 17.624V19.928C166.806 24.536 165.286 28.312 162.246 31.256C159.206 34.168 155.238 35.624 150.342 35.624C145.158 35.624 140.87 33.944 137.478 30.584C134.118 27.224 132.438 23.096 132.438 18.2C132.438 13.336 134.118 9.224 137.478 5.864C140.87 2.472 145.062 0.775997 150.054 0.775997C153.19 0.775997 156.054 1.496 158.646 2.936C161.238 4.376 163.254 6.312 164.694 8.744L159.942 11.48C159.046 9.88 157.718 8.6 155.958 7.64C154.198 6.648 152.23 6.152 150.054 6.152C146.534 6.152 143.638 7.304 141.366 9.608C139.094 11.912 137.958 14.792 137.958 18.248C137.958 21.704 139.094 24.568 141.366 26.84C143.67 29.112 146.678 30.248 150.39 30.248C153.366 30.248 155.782 29.56 157.638 28.184C159.526 26.776 160.726 24.904 161.238 22.568H150.006V17.624H166.806Z" fill="black"/>
<path d="M192.012 6.68H177.852V16.088H191.532V21.368H177.852V35H172.332V1.4H192.012V6.68ZM225.736 30.584C222.376 33.944 218.264 35.624 213.4 35.624C208.536 35.624 204.408 33.944 201.016 30.584C197.656 27.192 195.976 23.064 195.976 18.2C195.976 13.336 197.656 9.224 201.016 5.864C204.408 2.472 208.536 0.775997 213.4 0.775997C218.264 0.775997 222.376 2.472 225.736 5.864C229.128 9.224 230.824 13.336 230.824 18.2C230.824 23.064 229.128 27.192 225.736 30.584ZM204.904 26.84C207.208 29.112 210.04 30.248 213.4 30.248C216.76 30.248 219.576 29.112 221.848 26.84C224.152 24.536 225.304 21.656 225.304 18.2C225.304 14.744 224.152 11.88 221.848 9.608C219.576 7.304 216.76 6.152 213.4 6.152C210.04 6.152 207.208 7.304 204.904 9.608C202.632 11.88 201.496 14.744 201.496 18.2C201.496 21.656 202.632 24.536 204.904 26.84ZM264.419 30.584C261.059 33.944 256.947 35.624 252.083 35.624C247.219 35.624 243.091 33.944 239.699 30.584C236.339 27.192 234.659 23.064 234.659 18.2C234.659 13.336 236.339 9.224 239.699 5.864C243.091 2.472 247.219 0.775997 252.083 0.775997C256.947 0.775997 261.059 2.472 264.419 5.864C267.811 9.224 269.507 13.336 269.507 18.2C269.507 23.064 267.811 27.192 264.419 30.584ZM243.587 26.84C245.891 29.112 248.723 30.248 252.083 30.248C255.443 30.248 258.259 29.112 260.531 26.84C262.835 24.536 263.987 21.656 263.987 18.2C263.987 14.744 262.835 11.88 260.531 9.608C258.259 7.304 255.443 6.152 252.083 6.152C248.723 6.152 245.891 7.304 243.587 9.608C241.315 11.88 240.179 14.744 240.179 18.2C240.179 21.656 241.315 24.536 243.587 26.84ZM288.222 1.4C292.83 1.4 296.654 3.016 299.694 6.248C302.766 9.48 304.302 13.464 304.302 18.2C304.302 22.904 302.766 26.888 299.694 30.152C296.654 33.384 292.83 35 288.222 35H275.022V1.4H288.222ZM288.222 29.72C291.39 29.72 293.966 28.632 295.95 26.456C297.966 24.28 298.974 21.528 298.974 18.2C298.974 14.84 297.966 12.088 295.95 9.944C293.966 7.768 291.39 6.68 288.222 6.68H280.542V29.72H288.222Z" fill="#46B04B"/>
</svg>
